<?xml version="1.0" encoding="UTF-8"?>
<svg xmlns="http://www.w3.org/2000/svg" version="1.1" viewBox="0 0 680 680">
  <defs>
    <style>
      .cls-1 {
        fill: #d81b60;
      }

      .cls-1, .cls-2, .cls-3, .cls-4 {
        stroke-width: 0px;
      }

      .cls-5 {
        stroke-miterlimit: 10;
        stroke-width: 64px;
      }

      .cls-5, .cls-6 {
        fill: none;
        stroke: #fff;
      }

      .cls-2 {
        fill: #000;
      }

      .cls-6 {
        stroke-width: 80px;
      }

      .cls-3 {
        fill: #6b1a38;
      }

      .cls-4 {
        fill: #fff;
      }
    </style>
  </defs>
  <g id="Layer_1" data-name="Layer 1">
    <path class="cls-6" d="M340,617c-133.1,0-240.8-37.8-240.5-84.2.3-46.4,108.4-83.9,241.5-83.8s240.8,37.8,240.5,84.2c-.3,46.3-107.8,83.7-240.5,83.8h-1ZM131,475c-66.1,67.9-26.1,116.2,89.3,107.8s262.6-70.2,328.7-138.2c38.6-39.6,42.3-74.5,10-93.6-95,79.8-266.1,138.7-382.1,131.5-17.2-1.1-32.6-3.6-45.9-7.5ZM131,335c-66.1,67.9-26.1,116.2,89.3,107.8,115.4-8.4,262.6-70.2,328.7-138.2,38.6-39.6,42.3-74.5,10-93.6-95,79.8-266.1,138.7-382.1,131.5-17.2-1.1-32.6-3.6-45.9-7.5ZM119,208c-53.3,66.6,2.4,107.9,124.2,92.2,57.7-7.4,122.9-26.9,181.8-54.2-115.1,13.7-242.3-2.1-306-38ZM340,211c-133.1,0-240.8-33.3-240.5-74.2s108.4-73.9,241.5-73.8c133.1,0,240.8,33.3,240.5,74.2-.3,40.7-107.8,73.8-240.5,73.8h-1Z"/>
    <path class="cls-1" d="M131,475c-66.1,67.9-26.1,116.2,89.3,107.8s262.6-70.2,328.7-138.2c38.6-39.6,42.3-74.5,10-93.6-95,79.8-266.1,138.7-382.1,131.5-17.2-1.1-32.6-3.6-45.9-7.5ZM131,335c-66.1,67.9-26.1,116.2,89.3,107.8,115.4-8.4,262.6-70.2,328.7-138.2,38.6-39.6,42.3-74.5,10-93.6-95,79.8-266.1,138.7-382.1,131.5-17.2-1.1-32.6-3.6-45.9-7.5Z"/>
    <path class="cls-2" d="M249,619c122.3,20,262.9-2.7,313.9-50.6,26.5-24.9,24.4-53.1-5.9-77.4-75,61.9-198.7,113.3-308,128ZM119,208c-53.3,66.6,2.4,107.9,124.2,92.2,57.7-7.4,122.9-26.9,181.8-54.2-115.1,13.7-242.3-2.1-306-38ZM340,211c-133.1,0-240.8-33.3-240.5-74.2s108.4-73.9,241.5-73.8c133.1,0,240.8,33.3,240.5,74.2-.3,40.7-107.8,73.8-240.5,73.8h-1Z"/>
  </g>
  <g id="Layer_2" data-name="Layer 2">
    <g>
      <path class="cls-4" d="M425.6,157.7c-20.4,0-45.3,14.4-55.5,32l-11.6,20.1c-10.2,17.6-26.8,17.6-37,0l-11.6-20.1c-10.2-17.6-35.1-32-55.5-32h-87.9c-20.4,0-28.7,14.4-18.5,32l173.5,300.4c10.2,17.6,26.8,17.6,37,0l173.5-300.4c10.2-17.6,1.8-32-18.5-32h-87.9Z"/>
      <path class="cls-5" d="M425.6,157.7c-20.4,0-45.3,14.4-55.5,32l-11.6,20.1c-10.2,17.6-26.8,17.6-37,0l-11.6-20.1c-10.2-17.6-35.1-32-55.5-32h-87.9c-20.4,0-28.7,14.4-18.5,32l173.5,300.4c10.2,17.6,26.8,17.6,37,0l173.5-300.4c10.2-17.6,1.8-32-18.5-32h-87.9Z"/>
    </g>
  </g>
  <g id="Layer_3" data-name="Layer 3">
    <g>
      <path class="cls-1" d="M388.6,157.7l-48.6,84.2-48.6-84.2h-161.9l210.5,364.5,210.5-364.5h-161.9Z"/>
      <path class="cls-3" d="M388.6,157.7l-48.6,84.2-48.6-84.2h-77.7l126.3,218.7,126.3-218.7h-77.7Z"/>
    </g>
  </g>
</svg>